<svg width="50" height="50" viewBox="0 0 50 50" fill="none" xmlns="http://www.w3.org/2000/svg">
<g clip-path="url(#clip0_4013_384)">
<path d="M25 0.433594C11.1919 0.433594 0 11.5608 0 25.2891C0 39.0174 11.1919 50.1446 25 50.1446C38.8081 50.1446 50 39.0174 50 25.2891C50 11.5608 38.8081 0.433594 25 0.433594ZM17.3837 38.3238H11.2936V18.8584H17.3837V38.3238ZM14.3314 16.185C12.3837 16.185 10.7994 14.6099 10.7994 12.6735C10.7994 10.7371 12.3837 9.16192 14.3314 9.16192C16.2791 9.16192 17.8634 10.7371 17.8634 12.6735C17.8634 14.6099 16.2791 16.185 14.3314 16.185ZM40.1599 38.3238H34.0843V28.8584C34.0843 26.6041 34.0407 23.6995 30.9157 23.6995C27.7471 23.6995 27.2674 26.1561 27.2674 28.6995V38.3382H21.1919V18.8584H27.0349V21.5174H27.1076C28.2994 19.4943 30.5087 18.2804 32.8634 18.3671C39.0262 18.3671 40.1599 22.3989 40.1599 27.6446V38.3238Z" fill="black"/>
</g>
<defs>
<clipPath id="clip0_4013_384">
<rect width="50" height="50" fill="white"/>
</clipPath>
</defs>
</svg>
