<svg width="47" height="47" viewBox="0 0 47 47" fill="none" xmlns="http://www.w3.org/2000/svg">
<path d="M45.7188 12.2983C45.1848 10.3008 43.6113 8.72726 41.6138 8.19331C37.9932 7.2229 23.4737 7.2229 23.4737 7.2229C23.4737 7.2229 8.95429 7.2229 5.33371 8.19331C3.33615 8.72726 1.76266 10.3008 1.22871 12.2983C0.258301 15.9189 0.258301 23.4737 0.258301 23.4737C0.258301 23.4737 0.258301 31.0285 1.22871 34.6491C1.76266 36.6467 3.33615 38.2201 5.33371 38.7541C8.95429 39.7245 23.4737 39.7245 23.4737 39.7245C23.4737 39.7245 37.9932 39.7245 41.6138 38.7541C43.6113 38.2201 45.1848 36.6467 45.7188 34.6491C46.6892 31.0285 46.6892 23.4737 46.6892 23.4737C46.6892 23.4737 46.6892 15.9189 45.7188 12.2983Z" fill="#FF0000"/>
<path d="M18.8306 30.4383L30.8923 23.4737L18.8306 16.509V30.4383Z" fill="white"/>
</svg>
